<svg width="119" height="56" viewBox="0 0 119 56" fill="none" xmlns="http://www.w3.org/2000/svg">
<path fill-rule="evenodd" clip-rule="evenodd" d="M103.5 30.9909V9.0459H108.55V30.068C108.55 32.785 109.133 33.7576 110.638 34.6312L113.357 36.1849L111.124 40.1662C105.93 37.691 103.5 35.8931 103.5 30.9909ZM99.3177 39.5347H94.2686V24.8732C94.2686 22.0573 92.4733 20.4552 90.3854 20.4552C87.9572 20.4552 86.1615 21.9116 86.1615 25.5532V39.5347H81.1124V25.5532C81.1124 21.9116 79.3171 20.4552 76.889 20.4552C74.8014 20.4552 73.0053 22.0573 73.0053 24.8732V39.5347H67.9562V24.824C67.9562 18.8532 71.9375 15.4057 76.55 15.4057C80.0922 15.4057 82.6656 17.1055 83.589 19.5812H83.6849C84.6074 17.1055 87.1808 15.4057 90.7247 15.4057C95.3364 15.4057 99.3177 18.8532 99.3177 24.824V39.5347ZM90.9026 0C75.4382 0 62.9023 12.5358 62.9023 28.0002C62.9023 43.4642 75.4382 56 90.9026 56C106.365 56 118.901 43.4642 118.901 28.0002C118.901 12.5358 106.365 0 90.9026 0Z" fill="white"/>
<mask id="mask0_5_130" style="mask-type:luminance" maskUnits="userSpaceOnUse" x="0" y="9" width="26" height="32">
<path d="M0 9.13086H25.0501V40.2491H0V9.13086Z" fill="white"/>
</mask>
<g mask="url(#mask0_5_130)">
<path fill-rule="evenodd" clip-rule="evenodd" d="M12.3788 20.248C8.15578 20.248 5.0485 23.5001 5.0485 27.8697C5.0485 32.2384 8.15578 35.4909 12.3788 35.4909C16.6031 35.4909 19.71 32.2384 19.71 27.8697C19.71 23.5001 16.6031 20.248 12.3788 20.248ZM-0.000183105 9.13086H5.0485V18.9853H5.14577C6.3592 17.0435 9.51489 15.4898 12.8158 15.4898C18.9331 15.4898 25.05 20.005 25.05 27.8697C25.05 35.7343 18.9331 40.2491 12.8158 40.2491C9.51489 40.2491 6.3592 38.6959 5.14577 36.7532H5.0485V39.6175H-0.000183105V9.13086Z" fill="white"/>
</g>
<path fill-rule="evenodd" clip-rule="evenodd" d="M27.9338 39.6174H32.9825V16.1212H27.9338V39.6174ZM30.4584 8.49915C32.0116 8.49915 33.2739 9.76228 33.2739 11.3155C33.2739 12.8691 32.0116 14.1306 30.4584 14.1306C28.9047 14.1306 27.6425 12.8691 27.6425 11.3155C27.6425 9.76228 28.9047 8.49915 30.4584 8.49915Z" fill="white"/>
<path fill-rule="evenodd" clip-rule="evenodd" d="M48.2205 34.8596C52.2983 34.8596 55.2106 31.6075 55.2106 27.5782C55.2106 23.5004 52.0553 20.2479 48.2205 20.2479C44.2875 20.2479 41.1323 23.5004 41.1323 27.5293C41.1323 31.6075 43.9482 34.8596 48.2205 34.8596ZM59.9683 36.9964C59.9683 44.7646 54.0456 49.2289 47.6866 49.2289C44.4337 49.2289 40.4527 47.8715 37.7829 44.5688L41.9091 41.5596C42.88 42.9192 45.0644 44.4724 47.4432 44.4724C52.5892 44.4724 55.2106 41.1222 55.2106 37.5303V35.9766C53.0751 38.3551 50.6474 39.6178 47.2003 39.6178C41.1323 39.6178 35.7922 35.055 35.7922 27.627C35.7922 19.9077 41.5205 15.4901 47.783 15.4901C50.9387 15.4901 53.4633 16.704 55.1138 18.8888H55.2106V16.1213H59.9683V36.9964Z" fill="white"/>
<path fill-rule="evenodd" clip-rule="evenodd" d="M111.405 3.7893C111.405 1.68183 113.085 0 115.179 0C117.294 0 118.984 1.68183 118.984 3.7893C118.984 5.89677 117.294 7.5786 115.179 7.5786C113.085 7.5786 111.405 5.89677 111.405 3.7893ZM112.181 3.7893C112.181 5.52303 113.489 6.87265 115.179 6.87265C116.89 6.87265 118.208 5.52303 118.208 3.7893C118.208 2.05556 116.89 0.705952 115.179 0.705952C113.489 0.705952 112.181 2.05556 112.181 3.7893ZM113.882 5.73067V1.81679H115.423C116.178 1.81679 116.688 2.28396 116.688 3.01068C116.688 3.61281 116.284 3.96579 115.955 4.04884V4.0696C115.955 4.0696 115.997 4.11113 116.093 4.28762L116.858 5.73067H116.029L115.285 4.21495H114.637V5.73067H113.882ZM114.637 3.6751H115.274C115.668 3.6751 115.923 3.42594 115.923 3.01068C115.923 2.60579 115.668 2.3774 115.274 2.3774H114.637V3.6751Z" fill="white"/>
</svg>
