<svg width="67" height="46" viewBox="0 0 67 46" fill="none" xmlns="http://www.w3.org/2000/svg">
<path fill-rule="evenodd" clip-rule="evenodd" d="M1 1L26.2437 1.03604V11.7314L21.1662 11.6953L24.6231 25.4155L31.1773 1.07214H41.2604L47.31 25.5596L51.0911 11.8034H46.41L46.3018 1.03604L65.9638 1L66 11.6953L60.8503 11.7314L51.8476 45.7256H37.5513L33.4098 29.4127L29.0887 45.7256L14.6482 45.6899L6.22161 11.8034L1.03604 11.7674L1 1Z" fill="#E8D3A2" stroke="#C8BE92" stroke-width="0.181095"/>
<path fill-rule="evenodd" clip-rule="evenodd" d="M19.042 10.104L24.4176 31.8386L32.3992 2.58631L39.8872 2.56239L47.1966 31.7614L53.0749 10.0653H47.8539V2.6012L64.251 2.57563L64.2517 10.104L59.4562 10.0653L50.4962 44.1362L38.7146 44.1107L33.3265 22.9436L27.6795 44.1492C27.6795 44.1492 15.716 44.2143 15.9481 44.137C16.1801 44.0595 7.3624 10.0653 7.3624 10.0653L2.4895 10.104V2.6012L24.5365 2.56238L24.4176 10.0264L19.042 10.104Z" fill="#33006F" stroke="#3D3769" stroke-width="0.181095"/>
<path fill-rule="evenodd" clip-rule="evenodd" d="M57.684 44.714C57.684 45.2161 57.267 45.6231 56.7528 45.6231C56.2386 45.623 55.8216 45.2161 55.8216 44.714C55.8216 44.2121 56.2386 43.8051 56.7528 43.8051C57.2671 43.805 57.684 44.2121 57.684 44.714Z" fill="white"/>
<path fill-rule="evenodd" clip-rule="evenodd" d="M57.684 44.714C57.684 45.2161 57.267 45.6231 56.7528 45.6231C56.2386 45.623 55.8216 45.2161 55.8216 44.714C55.8216 44.2121 56.2386 43.8051 56.7528 43.8051C57.2671 43.805 57.684 44.2121 57.684 44.714Z" stroke="#3D3769" stroke-width="0.271669"/>
<path fill-rule="evenodd" clip-rule="evenodd" d="M56.3669 45.2259H56.4929V44.8027H56.6117C56.7262 44.807 56.7798 44.8578 56.8088 44.9926C56.8349 45.1142 56.8567 45.1983 56.8726 45.2259H57.003C56.9842 45.1881 56.961 45.094 56.9291 44.9578C56.9045 44.8563 56.8595 44.7868 56.7856 44.7607V44.7564C56.8871 44.7215 56.9697 44.6361 56.9697 44.5086C56.9697 44.4317 56.9407 44.3651 56.8929 44.3231C56.832 44.268 56.7436 44.2419 56.6089 44.2419C56.5234 44.2419 56.4306 44.2506 56.3668 44.2637L56.3669 45.2259ZM56.4929 44.3521C56.5147 44.3462 56.5567 44.3405 56.6175 44.3405C56.7509 44.3404 56.8421 44.3955 56.8421 44.5216C56.8422 44.6331 56.7566 44.7071 56.6219 44.7071L56.4929 44.707V44.3521Z" fill="#3D3769"/>
</svg>
