<svg width="62" height="62" viewBox="0 0 62 62" fill="none" xmlns="http://www.w3.org/2000/svg">
<path d="M58.28 31.6458C58.28 29.6308 58.0992 27.6933 57.7633 25.8333H31V36.8383H46.2933C45.6217 40.3774 43.6067 43.3741 40.5842 45.3891V52.5449H49.8067C55.18 47.5849 58.28 40.2999 58.28 31.6458Z" fill="#4285F4"/>
<path d="M31 59.4167C38.6725 59.4167 45.105 56.885 49.8067 52.545L40.5842 45.3892C38.0525 47.0942 34.8233 48.1275 31 48.1275C23.6117 48.1275 17.3342 43.1417 15.0867 36.425H5.63165V43.7617C10.3075 53.0359 19.8917 59.4167 31 59.4167Z" fill="#34A853"/>
<path d="M15.0866 36.3992C14.5183 34.6942 14.1825 32.8858 14.1825 31C14.1825 29.1142 14.5183 27.3058 15.0866 25.6008V18.2642H5.63165C3.69415 22.0875 2.58331 26.4017 2.58331 31C2.58331 35.5983 3.69415 39.9125 5.63165 43.7358L12.9941 38.0008L15.0866 36.3992Z" fill="#FBBC05"/>
<path d="M31 13.8983C35.185 13.8983 38.905 15.3449 41.8758 18.1349L50.0133 9.99742C45.0792 5.39909 38.6725 2.58325 31 2.58325C19.8917 2.58325 10.3075 8.96409 5.63165 18.2641L15.0867 25.6007C17.3342 18.8841 23.6117 13.8983 31 13.8983Z" fill="#EA4335"/>
</svg>
