<svg width="453" height="290" viewBox="0 0 453 290" fill="none" xmlns="http://www.w3.org/2000/svg">
<rect x="178.5" y="19.5" width="116" height="32" rx="4.5" stroke="white" stroke-opacity="0.11"/>
<path d="M195.4 41V29.432H199.504C200.336 29.432 201.08 29.576 201.736 29.864C202.397 30.1467 202.917 30.5653 203.296 31.12C203.675 31.6747 203.864 32.3573 203.864 33.168C203.864 33.9307 203.691 34.584 203.344 35.128C203.003 35.672 202.525 36.088 201.912 36.376C201.299 36.664 200.581 36.808 199.76 36.808H197.376V41H195.4ZM197.36 35.248H199.712C200.389 35.248 200.941 35.0453 201.368 34.64C201.8 34.2347 202.016 33.7067 202.016 33.056C202.016 32.3947 201.792 31.8827 201.344 31.52C200.896 31.152 200.333 30.968 199.656 30.968H197.36V35.248ZM208.536 41.16C207.747 41.16 207.059 40.992 206.472 40.656C205.885 40.3147 205.429 39.8267 205.104 39.192C204.784 38.5573 204.624 37.7947 204.624 36.904C204.624 36.04 204.779 35.2827 205.088 34.632C205.403 33.9813 205.853 33.4747 206.44 33.112C207.027 32.7493 207.728 32.568 208.544 32.568C209.333 32.568 210.019 32.7413 210.6 33.088C211.181 33.4347 211.629 33.9307 211.944 34.576C212.264 35.2213 212.424 35.9973 212.424 36.904C212.424 37.7413 212.272 38.48 211.968 39.12C211.669 39.7547 211.229 40.2533 210.648 40.616C210.072 40.9787 209.368 41.16 208.536 41.16ZM208.544 39.68C208.992 39.68 209.36 39.5573 209.648 39.312C209.941 39.0667 210.157 38.7307 210.296 38.304C210.44 37.8773 210.512 37.392 210.512 36.848C210.512 36.3413 210.448 35.8747 210.32 35.448C210.197 35.0213 209.989 34.68 209.696 34.424C209.408 34.1627 209.024 34.032 208.544 34.032C208.091 34.032 207.715 34.152 207.416 34.392C207.123 34.6267 206.901 34.9573 206.752 35.384C206.608 35.8053 206.536 36.2933 206.536 36.848C206.536 37.3493 206.6 37.816 206.728 38.248C206.861 38.6747 207.075 39.0213 207.368 39.288C207.661 39.5493 208.053 39.68 208.544 39.68ZM225.006 32.728L222.382 41H220.702L219.006 35.488L217.35 41H215.71L213.086 32.728H214.838L216.566 38.416H216.654L218.326 32.728H219.75L221.47 38.408H221.558L223.222 32.728H225.006ZM227.679 37.312C227.674 37.7813 227.748 38.1973 227.903 38.56C228.058 38.9227 228.287 39.208 228.591 39.416C228.895 39.6187 229.271 39.72 229.719 39.72C230.178 39.72 230.575 39.6187 230.911 39.416C231.252 39.208 231.479 38.8933 231.591 38.472H233.375C233.279 39.048 233.05 39.536 232.687 39.936C232.324 40.336 231.884 40.64 231.367 40.848C230.855 41.056 230.322 41.16 229.767 41.16C228.967 41.16 228.263 40.992 227.655 40.656C227.052 40.3147 226.58 39.8293 226.239 39.2C225.903 38.5707 225.735 37.8213 225.735 36.952C225.735 36.104 225.89 35.352 226.199 34.696C226.508 34.0347 226.954 33.5147 227.535 33.136C228.122 32.7573 228.826 32.568 229.647 32.568C230.463 32.568 231.148 32.7413 231.703 33.088C232.263 33.4347 232.684 33.92 232.967 34.544C233.255 35.1627 233.399 35.888 233.399 36.72V37.312H227.679ZM227.679 36.104H231.559C231.559 35.704 231.49 35.344 231.351 35.024C231.212 34.6987 230.999 34.4427 230.711 34.256C230.428 34.064 230.071 33.968 229.639 33.968C229.212 33.968 228.852 34.072 228.559 34.28C228.266 34.488 228.044 34.7573 227.895 35.088C227.746 35.4133 227.674 35.752 227.679 36.104ZM235.213 41V32.728H237.077V34.52C237.211 34.1093 237.4 33.76 237.645 33.472C237.896 33.1787 238.189 32.9547 238.525 32.8C238.861 32.6453 239.227 32.568 239.621 32.568C239.717 32.568 239.811 32.5733 239.901 32.584C239.992 32.5947 240.059 32.6133 240.101 32.64V34.504C240.043 34.4773 239.965 34.4587 239.869 34.448C239.779 34.4373 239.699 34.432 239.629 34.432C239.229 34.4 238.875 34.416 238.565 34.48C238.261 34.544 238.003 34.6533 237.789 34.808C237.581 34.9573 237.424 35.1493 237.317 35.384C237.211 35.6133 237.157 35.8827 237.157 36.192V41H235.213ZM248.411 41.16C247.622 41.16 246.934 40.992 246.347 40.656C245.76 40.3147 245.304 39.8267 244.979 39.192C244.659 38.5573 244.499 37.7947 244.499 36.904C244.499 36.04 244.654 35.2827 244.963 34.632C245.278 33.9813 245.728 33.4747 246.315 33.112C246.902 32.7493 247.603 32.568 248.419 32.568C249.208 32.568 249.894 32.7413 250.475 33.088C251.056 33.4347 251.504 33.9307 251.819 34.576C252.139 35.2213 252.299 35.9973 252.299 36.904C252.299 37.7413 252.147 38.48 251.843 39.12C251.544 39.7547 251.104 40.2533 250.523 40.616C249.947 40.9787 249.243 41.16 248.411 41.16ZM248.419 39.68C248.867 39.68 249.235 39.5573 249.523 39.312C249.816 39.0667 250.032 38.7307 250.171 38.304C250.315 37.8773 250.387 37.392 250.387 36.848C250.387 36.3413 250.323 35.8747 250.195 35.448C250.072 35.0213 249.864 34.68 249.571 34.424C249.283 34.1627 248.899 34.032 248.419 34.032C247.966 34.032 247.59 34.152 247.291 34.392C246.998 34.6267 246.776 34.9573 246.627 35.384C246.483 35.8053 246.411 36.2933 246.411 36.848C246.411 37.3493 246.475 37.816 246.603 38.248C246.736 38.6747 246.95 39.0213 247.243 39.288C247.536 39.5493 247.928 39.68 248.419 39.68ZM258.617 32.728V34.104H256.753V41H254.809V34.104H253.177V32.728H254.809V31.496C254.809 30.8347 254.99 30.3253 255.353 29.968C255.721 29.6107 256.251 29.432 256.945 29.432H258.689L258.697 30.76H257.545C257.23 30.76 257.014 30.8427 256.897 31.008C256.779 31.168 256.721 31.4213 256.721 31.768V32.728H258.617ZM263.169 41L267.329 29.432H269.433L273.585 41H271.633L270.601 38.096H266.185L265.129 41H263.169ZM266.633 36.368H270.121L268.385 31.328L266.633 36.368ZM275.525 29.432H277.469V41H275.525V29.432Z" fill="#DCDCDC"/>
<circle cx="27" cy="71" r="27" fill="white" fill-opacity="0.33"/>
<circle cx="27" cy="71" r="14" fill="white"/>
<path d="M236.646 51.6464C236.842 51.4512 237.158 51.4512 237.354 51.6464L240.536 54.8284C240.731 55.0237 240.731 55.3403 240.536 55.5355C240.34 55.7308 240.024 55.7308 239.828 55.5355L237 52.7071L234.172 55.5355C233.976 55.7308 233.66 55.7308 233.464 55.5355C233.269 55.3403 233.269 55.0237 233.464 54.8284L236.646 51.6464ZM237 71H237.5V71.5H237V71ZM237.5 52V52.95H236.5V52H237.5ZM237.5 54.85V56.75H236.5V54.85H237.5ZM237.5 58.65V60.55H236.5V58.65H237.5ZM237.5 62.45V64.35H236.5V62.45H237.5ZM237.5 66.25V68.15H236.5V66.25H237.5ZM237.5 70.05V71H236.5V70.05H237.5ZM237 71.5H236.009V70.5H237V71.5ZM234.028 71.5H232.047V70.5H234.028V71.5ZM230.066 71.5H228.085V70.5H230.066V71.5ZM226.104 71.5H224.123V70.5H226.104V71.5ZM222.142 71.5H220.16V70.5H222.142V71.5ZM218.179 71.5H216.198V70.5H218.179V71.5ZM214.217 71.5H212.236V70.5H214.217V71.5ZM210.255 71.5H208.274V70.5H210.255V71.5ZM206.292 71.5H204.311V70.5H206.292V71.5ZM202.33 71.5H200.349V70.5H202.33V71.5ZM198.368 71.5H196.387V70.5H198.368V71.5ZM194.406 71.5H192.425V70.5H194.406V71.5ZM190.443 71.5H188.462V70.5H190.443V71.5ZM186.481 71.5H184.5V70.5H186.481V71.5ZM182.519 71.5H180.538V70.5H182.519V71.5ZM178.557 71.5H176.575V70.5H178.557V71.5ZM174.594 71.5H172.613V70.5H174.594V71.5ZM170.632 71.5H168.651V70.5H170.632V71.5ZM166.67 71.5H164.689V70.5H166.67V71.5ZM162.708 71.5H160.726V70.5H162.708V71.5ZM158.745 71.5H156.764V70.5H158.745V71.5ZM154.783 71.5H152.802V70.5H154.783V71.5ZM150.821 71.5H148.84V70.5H150.821V71.5ZM146.858 71.5H144.877V70.5H146.858V71.5ZM142.896 71.5H140.915V70.5H142.896V71.5ZM138.934 71.5H136.953V70.5H138.934V71.5ZM134.972 71.5H132.991V70.5H134.972V71.5ZM131.009 71.5H129.028V70.5H131.009V71.5ZM127.047 71.5H125.066V70.5H127.047V71.5ZM123.085 71.5H121.104V70.5H123.085V71.5ZM119.123 71.5H117.141V70.5H119.123V71.5ZM115.16 71.5H113.179V70.5H115.16V71.5ZM111.198 71.5H109.217V70.5H111.198V71.5ZM107.236 71.5H105.255V70.5H107.236V71.5ZM103.274 71.5H101.292V70.5H103.274V71.5ZM99.3113 71.5H97.3302V70.5H99.3113V71.5ZM95.3491 71.5H93.368V70.5H95.3491V71.5ZM91.3868 71.5H89.4057V70.5H91.3868V71.5ZM87.4246 71.5H85.4435V70.5H87.4246V71.5ZM83.4623 71.5H81.4812V70.5H83.4623V71.5ZM79.5001 71.5H77.519V70.5H79.5001V71.5ZM75.5378 71.5H73.5567V70.5H75.5378V71.5ZM71.5756 71.5H69.5945V70.5H71.5756V71.5ZM67.6133 71.5H65.6322V70.5H67.6133V71.5ZM63.6511 71.5H61.67V70.5H63.6511V71.5ZM59.6888 71.5H57.7077V70.5H59.6888V71.5ZM55.7266 71.5H53.7455V70.5H55.7266V71.5ZM51.7643 71.5H49.7832V70.5H51.7643V71.5ZM47.8021 71.5H45.821V70.5H47.8021V71.5ZM43.8398 71.5H41.8587V70.5H43.8398V71.5ZM39.8776 71.5H37.8965V70.5H39.8776V71.5ZM35.9153 71.5H33.9342V70.5H35.9153V71.5ZM31.9531 71.5H29.972V70.5H31.9531V71.5ZM27.9908 71.5H27V70.5H27.9908V71.5Z" fill="white"/>
<rect x="146.5" y="244.5" width="116" height="32" rx="4.5" stroke="white" stroke-opacity="0.11"/>
<path d="M164.856 266V257.088H162.712V255.928C163.389 255.928 163.925 255.872 164.32 255.76C164.72 255.643 165.011 255.472 165.192 255.248C165.379 255.024 165.485 254.752 165.512 254.432H166.84V266H164.856ZM177.463 266H175.487L173.087 262.168L171.743 263.576V266H169.807V254.112H171.743V261.48L175.175 257.728H177.311L174.319 260.96L177.463 266ZM186.091 259.456V260.904L178.827 260.912V259.464L186.091 259.456ZM183.195 263.808H181.747L181.739 256.544H183.187L183.195 263.808Z" fill="white"/>
<path d="M191.122 266L195.282 254.432H197.386L201.538 266H199.586L198.554 263.096H194.138L193.082 266H191.122ZM194.586 261.368H198.074L196.338 256.328L194.586 261.368ZM213.35 257.728L210.726 266H209.046L207.35 260.488L205.694 266H204.054L201.43 257.728H203.182L204.91 263.416H204.998L206.67 257.728H208.094L209.814 263.408H209.902L211.566 257.728H213.35ZM216.839 266.16C216.311 266.16 215.836 266.064 215.415 265.872C214.999 265.675 214.671 265.395 214.431 265.032C214.196 264.664 214.079 264.219 214.079 263.696C214.079 262.784 214.407 262.096 215.063 261.632C215.724 261.168 216.777 260.925 218.223 260.904L219.455 260.872V260.312C219.455 259.875 219.324 259.533 219.063 259.288C218.807 259.037 218.407 258.915 217.863 258.92C217.463 258.925 217.095 259.021 216.759 259.208C216.428 259.389 216.209 259.696 216.103 260.128H214.447C214.479 259.563 214.641 259.091 214.935 258.712C215.233 258.328 215.641 258.043 216.159 257.856C216.676 257.664 217.273 257.568 217.951 257.568C218.74 257.568 219.383 257.672 219.879 257.88C220.375 258.088 220.74 258.389 220.975 258.784C221.209 259.173 221.327 259.645 221.327 260.2V266H219.687L219.535 264.512C219.236 265.136 218.857 265.568 218.399 265.808C217.945 266.043 217.425 266.16 216.839 266.16ZM217.471 264.84C217.711 264.84 217.948 264.797 218.183 264.712C218.417 264.621 218.631 264.501 218.823 264.352C219.015 264.197 219.167 264.027 219.279 263.84C219.396 263.653 219.455 263.459 219.455 263.256V261.952L218.439 261.968C217.937 261.973 217.5 262.027 217.127 262.128C216.753 262.229 216.46 262.392 216.247 262.616C216.039 262.835 215.935 263.128 215.935 263.496C215.935 263.917 216.081 264.248 216.375 264.488C216.668 264.723 217.033 264.84 217.471 264.84ZM223.604 266V257.728H225.468V259.52C225.601 259.109 225.791 258.76 226.036 258.472C226.287 258.179 226.58 257.955 226.916 257.8C227.252 257.645 227.617 257.568 228.012 257.568C228.108 257.568 228.201 257.573 228.292 257.584C228.383 257.595 228.449 257.613 228.492 257.64V259.504C228.433 259.477 228.356 259.459 228.26 259.448C228.169 259.437 228.089 259.432 228.02 259.432C227.62 259.4 227.265 259.416 226.956 259.48C226.652 259.544 226.393 259.653 226.18 259.808C225.972 259.957 225.815 260.149 225.708 260.384C225.601 260.613 225.548 260.883 225.548 261.192V266H223.604ZM232.917 266.16C231.824 266.16 230.965 265.784 230.341 265.032C229.717 264.28 229.405 263.211 229.405 261.824C229.405 260.96 229.531 260.211 229.781 259.576C230.037 258.936 230.411 258.443 230.901 258.096C231.397 257.744 232.011 257.568 232.741 257.568C233.083 257.568 233.392 257.611 233.669 257.696C233.952 257.776 234.203 257.883 234.421 258.016C234.64 258.149 234.824 258.296 234.973 258.456C235.128 258.616 235.248 258.776 235.333 258.936V254.112H237.285V266H235.845L235.629 264.304C235.565 264.501 235.469 264.709 235.341 264.928C235.219 265.141 235.051 265.341 234.837 265.528C234.629 265.715 234.368 265.867 234.053 265.984C233.739 266.101 233.36 266.16 232.917 266.16ZM233.317 264.728C234.016 264.728 234.525 264.501 234.845 264.048C235.171 263.589 235.333 262.832 235.333 261.776C235.328 261.173 235.253 260.667 235.109 260.256C234.971 259.845 234.755 259.536 234.461 259.328C234.173 259.12 233.8 259.016 233.341 259.016C232.755 259.016 232.272 259.232 231.893 259.664C231.515 260.096 231.325 260.8 231.325 261.776C231.325 262.747 231.499 263.483 231.845 263.984C232.192 264.48 232.683 264.728 233.317 264.728ZM242.607 266.16C242.031 266.16 241.484 266.069 240.967 265.888C240.455 265.701 240.023 265.411 239.671 265.016C239.324 264.621 239.105 264.112 239.015 263.488H240.727C240.801 263.792 240.932 264.04 241.119 264.232C241.311 264.424 241.537 264.565 241.799 264.656C242.06 264.741 242.327 264.784 242.599 264.784C243.095 264.784 243.495 264.699 243.799 264.528C244.108 264.357 244.263 264.093 244.263 263.736C244.263 263.475 244.177 263.267 244.007 263.112C243.836 262.957 243.564 262.84 243.191 262.76L241.615 262.4C240.916 262.245 240.353 261.989 239.927 261.632C239.505 261.275 239.292 260.771 239.287 260.12C239.281 259.629 239.404 259.192 239.655 258.808C239.905 258.424 240.279 258.123 240.775 257.904C241.271 257.68 241.884 257.568 242.615 257.568C243.58 257.568 244.353 257.784 244.935 258.216C245.516 258.643 245.815 259.253 245.831 260.048H244.175C244.116 259.691 243.948 259.413 243.671 259.216C243.393 259.013 243.033 258.912 242.591 258.912C242.132 258.912 241.756 259 241.463 259.176C241.169 259.352 241.023 259.621 241.023 259.984C241.023 260.235 241.135 260.432 241.359 260.576C241.583 260.72 241.919 260.843 242.367 260.944L243.855 261.304C244.281 261.411 244.631 261.555 244.903 261.736C245.175 261.917 245.388 262.117 245.543 262.336C245.697 262.549 245.804 262.771 245.863 263C245.927 263.224 245.959 263.432 245.959 263.624C245.959 264.157 245.82 264.613 245.543 264.992C245.271 265.365 244.884 265.653 244.383 265.856C243.881 266.059 243.289 266.16 242.607 266.16Z" fill="#DCDCDC"/>
<circle cx="100" cy="178" r="27" fill="white" fill-opacity="0.33"/>
<circle cx="100" cy="178" r="14" fill="white"/>
<path d="M204.646 244.354C204.842 244.549 205.158 244.549 205.354 244.354L208.536 241.172C208.731 240.976 208.731 240.66 208.536 240.464C208.34 240.269 208.024 240.269 207.828 240.464L205 243.293L202.172 240.464C201.976 240.269 201.66 240.269 201.464 240.464C201.269 240.66 201.269 240.976 201.464 241.172L204.646 244.354ZM205 178H205.5V177.5H205V178ZM205.5 244V243.029H204.5V244H205.5ZM205.5 241.088V239.147H204.5V241.088H205.5ZM205.5 237.206V235.265H204.5V237.206H205.5ZM205.5 233.324V231.382H204.5V233.324H205.5ZM205.5 229.441V227.5H204.5V229.441H205.5ZM205.5 225.559V223.618H204.5V225.559H205.5ZM205.5 221.676V219.735H204.5V221.676H205.5ZM205.5 217.794V215.853H204.5V217.794H205.5ZM205.5 213.912V211.971H204.5V213.912H205.5ZM205.5 210.029V208.088H204.5V210.029H205.5ZM205.5 206.147V204.206H204.5V206.147H205.5ZM205.5 202.265V200.324H204.5V202.265H205.5ZM205.5 198.382V196.441H204.5V198.382H205.5ZM205.5 194.5V192.559H204.5V194.5H205.5ZM205.5 190.618V188.676H204.5V190.618H205.5ZM205.5 186.735V184.794H204.5V186.735H205.5ZM205.5 182.853V180.912H204.5V182.853H205.5ZM205.5 178.971V178H204.5V178.971H205.5ZM205 177.5H203.99V178.5H205V177.5ZM201.971 177.5H199.952V178.5H201.971V177.5ZM197.933 177.5H195.913V178.5H197.933V177.5ZM193.894 177.5H191.875V178.5H193.894V177.5ZM189.856 177.5H187.837V178.5H189.856V177.5ZM185.817 177.5H183.798V178.5H185.817V177.5ZM181.779 177.5H179.76V178.5H181.779V177.5ZM177.74 177.5H175.721V178.5H177.74V177.5ZM173.702 177.5H171.683V178.5H173.702V177.5ZM169.663 177.5H167.644V178.5H169.663V177.5ZM165.625 177.5H163.606V178.5H165.625V177.5ZM161.587 177.5H159.567V178.5H161.587V177.5ZM157.548 177.5H155.529V178.5H157.548V177.5ZM153.51 177.5H151.49V178.5H153.51V177.5ZM149.471 177.5H147.452V178.5H149.471V177.5ZM145.433 177.5H143.413V178.5H145.433V177.5ZM141.394 177.5H139.375V178.5H141.394V177.5ZM137.356 177.5H135.337V178.5H137.356V177.5ZM133.317 177.5H131.298V178.5H133.317V177.5ZM129.279 177.5H127.26V178.5H129.279V177.5ZM125.24 177.5H123.221V178.5H125.24V177.5ZM121.202 177.5H119.183V178.5H121.202V177.5ZM117.163 177.5H115.144V178.5H117.163V177.5ZM113.125 177.5H111.106V178.5H113.125V177.5ZM109.087 177.5H107.067V178.5H109.087V177.5ZM105.048 177.5H103.029V178.5H105.048V177.5ZM101.01 177.5H100V178.5H101.01V177.5Z" fill="white"/>
<rect x="332.5" y="0.5" width="120" height="51" rx="4.5" stroke="white" stroke-opacity="0.11"/>
<path d="M380.812 10.432H383.108V17.48H384.892V19.44H383.108V22H380.86L380.868 19.44H375.54V17.52L380.812 10.432ZM377.7 17.48H380.868V13.24L377.7 17.48ZM386.144 22V19.456H388.704V22H386.144ZM391.576 10.432H399.008L398.92 12.344H393.424L393.2 15.136C393.627 14.896 394.032 14.7227 394.416 14.616C394.805 14.5093 395.232 14.456 395.696 14.456C396.469 14.456 397.16 14.6027 397.768 14.896C398.381 15.184 398.867 15.608 399.224 16.168C399.581 16.728 399.76 17.4107 399.76 18.216C399.76 19.032 399.576 19.736 399.208 20.328C398.84 20.92 398.317 21.376 397.64 21.696C396.968 22.016 396.171 22.176 395.248 22.176C394.491 22.176 393.787 22.0587 393.136 21.824C392.485 21.5893 391.923 21.2693 391.448 20.864C390.973 20.4533 390.613 19.984 390.368 19.456L392.192 18.376C392.4 18.7387 392.635 19.0667 392.896 19.36C393.157 19.648 393.459 19.8773 393.8 20.048C394.147 20.2133 394.549 20.296 395.008 20.296C395.701 20.296 396.259 20.112 396.68 19.744C397.101 19.376 397.312 18.896 397.312 18.304C397.312 17.9307 397.216 17.5973 397.024 17.304C396.837 17.0053 396.579 16.7707 396.248 16.6C395.917 16.4293 395.531 16.344 395.088 16.344C394.853 16.344 394.629 16.3653 394.416 16.408C394.208 16.4453 393.995 16.52 393.776 16.632C393.563 16.7387 393.325 16.8933 393.064 17.096C392.989 17.128 392.936 17.144 392.904 17.144C392.877 17.144 392.824 17.1253 392.744 17.088L391.048 16.304L391.576 10.432ZM406.069 22.16C405.658 22.16 405.304 22.1067 405.005 22C404.706 21.8933 404.453 21.752 404.245 21.576C404.037 21.3947 403.866 21.1947 403.733 20.976C403.6 20.7573 403.496 20.5333 403.421 20.304L403.157 22H401.461V10.112H403.805V14.848C403.906 14.672 404.037 14.5067 404.197 14.352C404.357 14.1973 404.544 14.0613 404.757 13.944C404.97 13.8267 405.205 13.736 405.461 13.672C405.722 13.6027 406 13.568 406.293 13.568C407.322 13.568 408.128 13.9387 408.709 14.68C409.296 15.4213 409.589 16.4667 409.589 17.816C409.589 18.6907 409.456 19.4533 409.189 20.104C408.922 20.7547 408.528 21.2613 408.005 21.624C407.482 21.9813 406.837 22.16 406.069 22.16ZM405.557 20.48C406.058 20.48 406.474 20.2747 406.805 19.864C407.141 19.448 407.309 18.7547 407.309 17.784C407.309 16.9253 407.149 16.2907 406.829 15.88C406.514 15.4693 406.085 15.264 405.541 15.264C405.152 15.264 404.829 15.3573 404.573 15.544C404.317 15.7253 404.125 16.0027 403.997 16.376C403.874 16.7493 403.81 17.2187 403.805 17.784C403.805 18.76 403.949 19.4533 404.237 19.864C404.53 20.2747 404.97 20.48 405.557 20.48ZM349.856 41V29.432H351.904L355.392 38.984L358.928 29.432H360.968V41H359.44V31.648L356.088 41H354.704L351.376 31.736V41H349.856ZM365.965 41.16C365.432 41.16 364.96 41.0667 364.549 40.88C364.138 40.688 363.816 40.4133 363.581 40.056C363.352 39.6987 363.237 39.2667 363.237 38.76C363.237 37.8427 363.557 37.16 364.197 36.712C364.837 36.264 365.864 36.024 367.277 35.992L368.757 35.952V35.304C368.757 34.7973 368.605 34.3973 368.301 34.104C367.997 33.8053 367.525 33.656 366.885 33.656C366.41 33.6613 365.992 33.7733 365.629 33.992C365.272 34.2107 365.04 34.568 364.933 35.064H363.629C363.661 34.5253 363.813 34.072 364.085 33.704C364.357 33.3307 364.736 33.048 365.221 32.856C365.712 32.664 366.29 32.568 366.957 32.568C367.677 32.568 368.274 32.6693 368.749 32.872C369.229 33.0747 369.586 33.3733 369.821 33.768C370.061 34.1627 370.181 34.648 370.181 35.224V41H368.917L368.813 39.448C368.493 40.0933 368.085 40.5413 367.589 40.792C367.098 41.0373 366.557 41.16 365.965 41.16ZM366.413 40.096C366.69 40.096 366.965 40.0453 367.237 39.944C367.514 39.8427 367.768 39.7067 367.997 39.536C368.226 39.36 368.408 39.1653 368.541 38.952C368.68 38.7333 368.752 38.5093 368.757 38.28V36.864L367.525 36.888C366.896 36.8987 366.368 36.9627 365.941 37.08C365.52 37.1973 365.202 37.3813 364.989 37.632C364.781 37.8827 364.677 38.2107 364.677 38.616C364.677 39.08 364.837 39.4427 365.157 39.704C365.482 39.9653 365.901 40.096 366.413 40.096ZM372.708 41V32.728H374.116V34.32C374.255 33.9253 374.45 33.6 374.7 33.344C374.951 33.0827 375.236 32.888 375.556 32.76C375.882 32.632 376.218 32.568 376.564 32.568C376.687 32.568 376.807 32.576 376.924 32.592C377.042 32.608 377.132 32.6347 377.196 32.672V34.104C377.116 34.0667 377.012 34.0427 376.884 34.032C376.762 34.016 376.658 34.008 376.572 34.008C376.242 33.9867 375.932 34.008 375.644 34.072C375.356 34.1307 375.103 34.2347 374.884 34.384C374.666 34.5333 374.492 34.7307 374.364 34.976C374.242 35.216 374.18 35.5093 374.18 35.856V41H372.708ZM386.176 41H384.608L382.016 36.848L380.384 38.536V41H378.912V29.112H380.384V36.864L384.272 32.728H385.968L382.984 35.88L386.176 41ZM388.624 37.208C388.624 37.7307 388.709 38.2053 388.88 38.632C389.056 39.0533 389.32 39.3893 389.672 39.64C390.029 39.8907 390.474 40.016 391.008 40.016C391.536 40.016 391.989 39.8933 392.368 39.648C392.752 39.4027 392.997 39.048 393.104 38.584H394.504C394.402 39.144 394.178 39.616 393.832 40C393.485 40.384 393.066 40.6747 392.576 40.872C392.085 41.064 391.573 41.16 391.04 41.16C390.266 41.16 389.586 40.992 389 40.656C388.413 40.32 387.954 39.8373 387.624 39.208C387.293 38.5787 387.128 37.824 387.128 36.944C387.128 36.0747 387.277 35.312 387.576 34.656C387.874 34 388.306 33.488 388.872 33.12C389.442 32.752 390.128 32.568 390.928 32.568C391.706 32.568 392.365 32.736 392.904 33.072C393.442 33.408 393.85 33.8827 394.128 34.496C394.41 35.104 394.552 35.8267 394.552 36.664V37.208H388.624ZM388.632 36.208H393.128C393.128 35.7333 393.048 35.3067 392.888 34.928C392.728 34.544 392.482 34.2427 392.152 34.024C391.826 33.8 391.416 33.688 390.92 33.688C390.402 33.688 389.973 33.8133 389.632 34.064C389.296 34.3093 389.042 34.6267 388.872 35.016C388.706 35.4 388.626 35.7973 388.632 36.208ZM400.52 33.808H398.656V38.952C398.656 39.2453 398.686 39.4613 398.744 39.6C398.808 39.7333 398.912 39.8187 399.056 39.856C399.206 39.8933 399.408 39.912 399.664 39.912H400.568V40.904C400.467 40.9413 400.312 40.9733 400.104 41C399.902 41.0267 399.648 41.04 399.344 41.04C398.774 41.04 398.331 40.9627 398.016 40.808C397.702 40.6533 397.48 40.424 397.352 40.12C397.23 39.816 397.168 39.4427 397.168 39V33.808H395.824V32.728H397.208L397.568 30.32H398.656V32.72H400.52V33.808ZM410.565 41.16C410.021 41.16 409.493 41.0933 408.981 40.96C408.469 40.8213 408.005 40.616 407.589 40.344C407.173 40.072 406.827 39.736 406.549 39.336C406.277 38.9307 406.107 38.4613 406.037 37.928H407.589C407.685 38.3653 407.875 38.7333 408.157 39.032C408.445 39.3307 408.795 39.5547 409.205 39.704C409.621 39.8533 410.072 39.928 410.557 39.928C411.101 39.928 411.587 39.8533 412.013 39.704C412.445 39.5493 412.784 39.3307 413.029 39.048C413.28 38.7653 413.405 38.4267 413.405 38.032C413.405 37.6853 413.325 37.384 413.165 37.128C413.011 36.872 412.784 36.6587 412.485 36.488C412.187 36.3173 411.824 36.184 411.397 36.088L409.125 35.56C408.272 35.3733 407.603 35.04 407.117 34.56C406.637 34.08 406.392 33.4453 406.381 32.656C406.381 31.9893 406.557 31.4027 406.909 30.896C407.267 30.3893 407.755 29.9947 408.373 29.712C408.997 29.4293 409.709 29.288 410.509 29.288C411.432 29.288 412.208 29.4453 412.837 29.76C413.467 30.0747 413.941 30.488 414.261 31C414.581 31.512 414.744 32.0587 414.749 32.64H413.221C413.173 32.1173 413.019 31.704 412.757 31.4C412.501 31.0907 412.179 30.872 411.789 30.744C411.4 30.6107 410.976 30.544 410.517 30.544C410.187 30.544 409.867 30.5867 409.557 30.672C409.253 30.752 408.979 30.8747 408.733 31.04C408.493 31.2053 408.301 31.4107 408.157 31.656C408.013 31.9013 407.941 32.1867 407.941 32.512C407.941 32.928 408.083 33.2667 408.365 33.528C408.653 33.7893 409.173 34.0133 409.925 34.2L412.125 34.728C412.701 34.8507 413.171 35.032 413.533 35.272C413.901 35.512 414.184 35.784 414.381 36.088C414.584 36.392 414.723 36.7093 414.797 37.04C414.877 37.3707 414.917 37.696 414.917 38.016C414.917 38.5973 414.744 39.128 414.397 39.608C414.051 40.0827 413.552 40.4613 412.901 40.744C412.256 41.0213 411.477 41.16 410.565 41.16ZM418.715 32.728V41H417.283V32.728H418.715ZM418.747 29.44V30.976H417.235V29.44H418.747ZM420.702 41V40.08L425.374 33.816H420.902V32.728H427.134V33.648L422.47 39.912H427.174V41H420.702ZM429.936 37.208C429.936 37.7307 430.022 38.2053 430.192 38.632C430.368 39.0533 430.632 39.3893 430.984 39.64C431.342 39.8907 431.787 40.016 432.32 40.016C432.848 40.016 433.302 39.8933 433.68 39.648C434.064 39.4027 434.31 39.048 434.416 38.584H435.816C435.715 39.144 435.491 39.616 435.144 40C434.798 40.384 434.379 40.6747 433.888 40.872C433.398 41.064 432.886 41.16 432.352 41.16C431.579 41.16 430.899 40.992 430.312 40.656C429.726 40.32 429.267 39.8373 428.936 39.208C428.606 38.5787 428.44 37.824 428.44 36.944C428.44 36.0747 428.59 35.312 428.888 34.656C429.187 34 429.619 33.488 430.184 33.12C430.755 32.752 431.44 32.568 432.24 32.568C433.019 32.568 433.678 32.736 434.216 33.072C434.755 33.408 435.163 33.8827 435.44 34.496C435.723 35.104 435.864 35.8267 435.864 36.664V37.208H429.936ZM429.944 36.208H434.44C434.44 35.7333 434.36 35.3067 434.2 34.928C434.04 34.544 433.795 34.2427 433.464 34.024C433.139 33.8 432.728 33.688 432.232 33.688C431.715 33.688 431.286 33.8133 430.944 34.064C430.608 34.3093 430.355 34.6267 430.184 35.016C430.019 35.4 429.939 35.7973 429.944 36.208Z" fill="#DCDCDC"/>
<circle cx="199" cy="118" r="27" fill="white" fill-opacity="0.33"/>
<circle cx="199" cy="118" r="14" fill="white"/>
<path d="M393.146 51.6464C393.342 51.4512 393.658 51.4512 393.854 51.6464L397.036 54.8284C397.231 55.0237 397.231 55.3403 397.036 55.5355C396.84 55.7308 396.524 55.7308 396.328 55.5355L393.5 52.7071L390.672 55.5355C390.476 55.7308 390.16 55.7308 389.964 55.5355C389.769 55.3403 389.769 55.0237 389.964 54.8284L393.146 51.6464ZM393.5 118H394V118.5H393.5V118ZM394 52V52.9706H393V52H394ZM394 54.9118V56.8529H393V54.9118H394ZM394 58.7941V60.7353H393V58.7941H394ZM394 62.6765V64.6176H393V62.6765H394ZM394 66.5588V68.5H393V66.5588H394ZM394 70.4412V72.3824H393V70.4412H394ZM394 74.3235V76.2647H393V74.3235H394ZM394 78.2059V80.1471H393V78.2059H394ZM394 82.0882V84.0294H393V82.0882H394ZM394 85.9706V87.9118H393V85.9706H394ZM394 89.853V91.7941H393V89.853H394ZM394 93.7353V95.6765H393V93.7353H394ZM394 97.6177V99.5588H393V97.6177H394ZM394 101.5V103.441H393V101.5H394ZM394 105.382V107.324H393V105.382H394ZM394 109.265V111.206H393V109.265H394ZM394 113.147V115.088H393V113.147H394ZM394 117.029V118H393V117.029H394ZM393.5 118.5H392.502V117.5H393.5V118.5ZM390.507 118.5H388.512V117.5H390.507V118.5ZM386.517 118.5H384.523V117.5H386.517V118.5ZM382.528 118.5H380.533V117.5H382.528V118.5ZM378.538 118.5H376.542V117.5H378.538V118.5ZM374.547 118.5H372.552V117.5H374.547V118.5ZM370.557 118.5H368.562V117.5H370.557V118.5ZM366.567 118.5H364.572V117.5H366.567V118.5ZM362.577 118.5H360.582V117.5H362.577V118.5ZM358.587 118.5H356.592V117.5H358.587V118.5ZM354.597 118.5H352.602V117.5H354.597V118.5ZM350.607 118.5H348.612V117.5H350.607V118.5ZM346.618 118.5H344.623V117.5H346.618V118.5ZM342.628 118.5H340.633V117.5H342.628V118.5ZM338.638 118.5H336.643V117.5H338.638V118.5ZM334.648 118.5H332.653V117.5H334.648V118.5ZM330.658 118.5H328.663V117.5H330.658V118.5ZM326.668 118.5H324.673V117.5H326.668V118.5ZM322.677 118.5H320.682V117.5H322.677V118.5ZM318.687 118.5H316.692V117.5H318.687V118.5ZM314.697 118.5H312.702V117.5H314.697V118.5ZM310.707 118.5H308.712V117.5H310.707V118.5ZM306.717 118.5H304.722V117.5H306.717V118.5ZM302.727 118.5H300.732V117.5H302.727V118.5ZM298.737 118.5H296.742V117.5H298.737V118.5ZM294.747 118.5H292.752V117.5H294.747V118.5ZM290.757 118.5H288.762V117.5H290.757V118.5ZM286.767 118.5H284.772V117.5H286.767V118.5ZM282.777 118.5H280.782V117.5H282.777V118.5ZM278.787 118.5H276.792V117.5H278.787V118.5ZM274.797 118.5H272.802V117.5H274.797V118.5ZM270.807 118.5H268.812V117.5H270.807V118.5ZM266.817 118.5H264.822V117.5H266.817V118.5ZM262.827 118.5H260.832V117.5H262.827V118.5ZM258.837 118.5H256.842V117.5H258.837V118.5ZM254.847 118.5H252.852V117.5H254.847V118.5ZM250.857 118.5H248.862V117.5H250.857V118.5ZM246.867 118.5H244.872V117.5H246.867V118.5ZM242.877 118.5H240.882V117.5H242.877V118.5ZM238.887 118.5H236.892V117.5H238.887V118.5ZM234.897 118.5H232.902V117.5H234.897V118.5ZM230.908 118.5H228.913V117.5H230.908V118.5ZM226.918 118.5H224.923V117.5H226.918V118.5ZM222.928 118.5H220.933V117.5H222.928V118.5ZM218.938 118.5H216.943V117.5H218.938V118.5ZM214.948 118.5H212.953V117.5H214.948V118.5ZM210.958 118.5H208.963V117.5H210.958V118.5ZM206.968 118.5H204.973V117.5H206.968V118.5ZM202.978 118.5H200.983V117.5H202.978V118.5ZM198.988 118.5H196.993V117.5H198.988V118.5ZM194.998 118.5H194V117.5H194.998V118.5Z" fill="white"/>
<rect x="325.5" y="238.5" width="127" height="51" rx="4.5" stroke="white" stroke-opacity="0.11"/>
<path d="M368.636 260V258.624V257.92C368.636 257.339 368.743 256.837 368.956 256.416C369.175 255.989 369.463 255.621 369.82 255.312C370.178 254.997 370.57 254.725 370.996 254.496C371.423 254.267 371.85 254.059 372.276 253.872C372.703 253.68 373.095 253.493 373.452 253.312C373.81 253.131 374.095 252.936 374.308 252.728C374.527 252.515 374.636 252.267 374.636 251.984C374.636 251.637 374.516 251.352 374.276 251.128C374.036 250.899 373.703 250.784 373.276 250.784C372.855 250.784 372.466 250.912 372.108 251.168C371.751 251.424 371.511 251.872 371.388 252.512H368.46C368.46 251.712 368.636 250.992 368.988 250.352C369.346 249.712 369.884 249.205 370.604 248.832C371.324 248.459 372.236 248.272 373.34 248.272C374.29 248.272 375.103 248.427 375.78 248.736C376.463 249.045 376.986 249.477 377.348 250.032C377.716 250.581 377.9 251.221 377.9 251.952C377.9 252.528 377.796 253.024 377.588 253.44C377.38 253.851 377.103 254.2 376.756 254.488C376.41 254.776 376.031 255.024 375.62 255.232C375.21 255.435 374.799 255.616 374.388 255.776C373.978 255.936 373.599 256.093 373.252 256.248C372.906 256.403 372.628 256.573 372.42 256.76C372.212 256.947 372.108 257.173 372.108 257.44H377.82V260H368.636ZM380.491 248.432H388.395L388.267 250.928H382.875L382.707 252.848C383.171 252.72 383.563 252.621 383.883 252.552C384.208 252.483 384.574 252.448 384.979 252.448C385.816 252.448 386.55 252.597 387.179 252.896C387.814 253.195 388.307 253.627 388.659 254.192C389.016 254.752 389.195 255.429 389.195 256.224C389.195 257.051 389 257.76 388.611 258.352C388.227 258.939 387.678 259.389 386.963 259.704C386.248 260.019 385.398 260.176 384.411 260.176C383.611 260.176 382.867 260.067 382.179 259.848C381.491 259.629 380.891 259.333 380.379 258.96C379.867 258.581 379.467 258.155 379.179 257.68L381.499 256.112C381.728 256.405 381.958 256.675 382.187 256.92C382.422 257.165 382.686 257.363 382.979 257.512C383.278 257.656 383.635 257.728 384.051 257.728C384.622 257.728 385.08 257.592 385.427 257.32C385.779 257.048 385.955 256.72 385.955 256.336C385.955 256.096 385.883 255.867 385.739 255.648C385.595 255.429 385.384 255.253 385.107 255.12C384.835 254.981 384.496 254.912 384.091 254.912C383.926 254.912 383.768 254.925 383.619 254.952C383.47 254.979 383.307 255.024 383.131 255.088C382.96 255.147 382.758 255.227 382.523 255.328C382.416 255.376 382.342 255.4 382.299 255.4C382.256 255.395 382.176 255.365 382.059 255.312L379.955 254.176L380.491 248.432ZM395.252 248.272C396.74 248.272 397.9 248.797 398.732 249.848C399.569 250.893 399.988 252.357 399.988 254.24C399.988 256.112 399.577 257.571 398.756 258.616C397.935 259.656 396.767 260.176 395.252 260.176C393.732 260.176 392.556 259.656 391.724 258.616C390.892 257.571 390.476 256.112 390.476 254.24C390.476 252.987 390.665 251.915 391.044 251.024C391.428 250.133 391.975 249.453 392.684 248.984C393.399 248.509 394.255 248.272 395.252 248.272ZM395.236 257.696C395.807 257.696 396.204 257.44 396.428 256.928C396.652 256.411 396.764 255.52 396.764 254.256C396.764 252.949 396.649 252.024 396.42 251.48C396.191 250.931 395.796 250.656 395.236 250.656C394.671 250.656 394.271 250.933 394.036 251.488C393.807 252.037 393.692 252.96 393.692 254.256C393.692 255.509 393.807 256.397 394.036 256.92C394.265 257.437 394.665 257.696 395.236 257.696ZM410.089 260H407.065L405.153 256.96L404.545 257.664V260H401.433V248.112H404.545V254.512L406.817 251.728H410.073L407.049 255.152L410.089 260Z" fill="white"/>
<path d="M341.595 268.792V267.432H350.347V268.792H346.819V279H345.331V268.792H341.595ZM351.435 279V270.728H352.843V272.32C352.982 271.925 353.176 271.6 353.427 271.344C353.678 271.083 353.963 270.888 354.283 270.76C354.608 270.632 354.944 270.568 355.291 270.568C355.414 270.568 355.534 270.576 355.651 270.592C355.768 270.608 355.859 270.635 355.923 270.672V272.104C355.843 272.067 355.739 272.043 355.611 272.032C355.488 272.016 355.384 272.008 355.299 272.008C354.968 271.987 354.659 272.008 354.371 272.072C354.083 272.131 353.83 272.235 353.611 272.384C353.392 272.533 353.219 272.731 353.091 272.976C352.968 273.216 352.907 273.509 352.907 273.856V279H351.435ZM359.723 279.16C359.19 279.16 358.718 279.067 358.307 278.88C357.896 278.688 357.574 278.413 357.339 278.056C357.11 277.699 356.995 277.267 356.995 276.76C356.995 275.843 357.315 275.16 357.955 274.712C358.595 274.264 359.622 274.024 361.035 273.992L362.515 273.952V273.304C362.515 272.797 362.363 272.397 362.059 272.104C361.755 271.805 361.283 271.656 360.643 271.656C360.168 271.661 359.75 271.773 359.387 271.992C359.03 272.211 358.798 272.568 358.691 273.064H357.387C357.419 272.525 357.571 272.072 357.843 271.704C358.115 271.331 358.494 271.048 358.979 270.856C359.47 270.664 360.048 270.568 360.715 270.568C361.435 270.568 362.032 270.669 362.507 270.872C362.987 271.075 363.344 271.373 363.579 271.768C363.819 272.163 363.939 272.648 363.939 273.224V279H362.675L362.571 277.448C362.251 278.093 361.843 278.541 361.347 278.792C360.856 279.037 360.315 279.16 359.723 279.16ZM360.171 278.096C360.448 278.096 360.723 278.045 360.995 277.944C361.272 277.843 361.526 277.707 361.755 277.536C361.984 277.36 362.166 277.165 362.299 276.952C362.438 276.733 362.51 276.509 362.515 276.28V274.864L361.283 274.888C360.654 274.899 360.126 274.963 359.699 275.08C359.278 275.197 358.96 275.381 358.747 275.632C358.539 275.883 358.435 276.211 358.435 276.616C358.435 277.08 358.595 277.443 358.915 277.704C359.24 277.965 359.659 278.096 360.171 278.096ZM366.466 279V270.728H367.898V271.928C368.032 271.699 368.216 271.483 368.45 271.28C368.69 271.077 368.978 270.915 369.314 270.792C369.656 270.669 370.048 270.608 370.49 270.608C371.013 270.608 371.493 270.712 371.93 270.92C372.373 271.128 372.725 271.453 372.986 271.896C373.253 272.333 373.386 272.899 373.386 273.592V279H371.906V273.736C371.906 273.091 371.736 272.613 371.394 272.304C371.058 271.989 370.621 271.832 370.082 271.832C369.709 271.832 369.36 271.893 369.034 272.016C368.709 272.133 368.445 272.315 368.242 272.56C368.04 272.8 367.938 273.104 367.938 273.472V279H366.466ZM378.512 279.16C377.936 279.16 377.4 279.072 376.904 278.896C376.413 278.715 376.005 278.435 375.68 278.056C375.354 277.672 375.149 277.184 375.064 276.592H376.408C376.482 276.917 376.616 277.189 376.808 277.408C377.005 277.621 377.25 277.784 377.544 277.896C377.837 278.003 378.157 278.056 378.504 278.056C379.058 278.056 379.506 277.952 379.848 277.744C380.189 277.536 380.36 277.216 380.36 276.784C380.36 276.48 380.269 276.237 380.088 276.056C379.912 275.869 379.637 275.733 379.264 275.648L377.552 275.224C376.885 275.064 376.352 274.813 375.952 274.472C375.552 274.131 375.352 273.653 375.352 273.04C375.346 272.555 375.461 272.128 375.696 271.76C375.93 271.392 376.282 271.101 376.752 270.888C377.221 270.675 377.805 270.568 378.504 270.568C379.4 270.568 380.122 270.771 380.672 271.176C381.226 271.576 381.514 272.165 381.536 272.944H380.232C380.178 272.549 380 272.237 379.696 272.008C379.397 271.773 378.994 271.656 378.488 271.656C377.96 271.656 377.53 271.763 377.2 271.976C376.869 272.184 376.704 272.509 376.704 272.952C376.704 273.245 376.821 273.477 377.056 273.648C377.29 273.813 377.637 273.952 378.096 274.064L379.752 274.48C380.136 274.581 380.45 274.715 380.696 274.88C380.946 275.045 381.144 275.229 381.288 275.432C381.437 275.635 381.541 275.848 381.6 276.072C381.664 276.291 381.696 276.501 381.696 276.704C381.696 277.211 381.568 277.648 381.312 278.016C381.061 278.379 380.698 278.661 380.224 278.864C379.754 279.061 379.184 279.16 378.512 279.16ZM386.082 279.16C385.549 279.16 385.077 279.067 384.666 278.88C384.256 278.688 383.933 278.413 383.698 278.056C383.469 277.699 383.354 277.267 383.354 276.76C383.354 275.843 383.674 275.16 384.314 274.712C384.954 274.264 385.981 274.024 387.394 273.992L388.874 273.952V273.304C388.874 272.797 388.722 272.397 388.418 272.104C388.114 271.805 387.642 271.656 387.002 271.656C386.528 271.661 386.109 271.773 385.746 271.992C385.389 272.211 385.157 272.568 385.05 273.064H383.746C383.778 272.525 383.93 272.072 384.202 271.704C384.474 271.331 384.853 271.048 385.338 270.856C385.829 270.664 386.408 270.568 387.074 270.568C387.794 270.568 388.392 270.669 388.866 270.872C389.346 271.075 389.704 271.373 389.938 271.768C390.178 272.163 390.298 272.648 390.298 273.224V279H389.034L388.93 277.448C388.61 278.093 388.202 278.541 387.706 278.792C387.216 279.037 386.674 279.16 386.082 279.16ZM386.53 278.096C386.808 278.096 387.082 278.045 387.354 277.944C387.632 277.843 387.885 277.707 388.114 277.536C388.344 277.36 388.525 277.165 388.658 276.952C388.797 276.733 388.869 276.509 388.874 276.28V274.864L387.642 274.888C387.013 274.899 386.485 274.963 386.058 275.08C385.637 275.197 385.32 275.381 385.106 275.632C384.898 275.883 384.794 276.211 384.794 276.616C384.794 277.08 384.954 277.443 385.274 277.704C385.6 277.965 386.018 278.096 386.53 278.096ZM396.122 270.568C396.714 270.568 397.247 270.683 397.722 270.912C398.196 271.136 398.583 271.456 398.882 271.872C399.186 272.288 399.375 272.779 399.45 273.344H398.138C398.09 273.056 397.978 272.792 397.802 272.552C397.631 272.312 397.404 272.12 397.122 271.976C396.839 271.832 396.508 271.76 396.13 271.76C395.42 271.76 394.844 272.016 394.402 272.528C393.959 273.04 393.738 273.824 393.738 274.88C393.738 275.835 393.94 276.6 394.346 277.176C394.756 277.747 395.359 278.032 396.154 278.032C396.532 278.032 396.86 277.96 397.138 277.816C397.42 277.667 397.647 277.472 397.818 277.232C397.988 276.987 398.098 276.725 398.146 276.448H399.434C399.364 277.003 399.178 277.483 398.874 277.888C398.57 278.293 398.18 278.608 397.706 278.832C397.236 279.051 396.708 279.16 396.122 279.16C395.38 279.16 394.722 278.997 394.146 278.672C393.575 278.347 393.127 277.867 392.802 277.232C392.476 276.597 392.314 275.819 392.314 274.896C392.314 274.032 392.46 273.277 392.754 272.632C393.052 271.981 393.484 271.475 394.05 271.112C394.62 270.749 395.311 270.568 396.122 270.568ZM405.388 271.808H403.524V276.952C403.524 277.245 403.553 277.461 403.612 277.6C403.676 277.733 403.78 277.819 403.924 277.856C404.073 277.893 404.276 277.912 404.532 277.912H405.436V278.904C405.334 278.941 405.18 278.973 404.972 279C404.769 279.027 404.516 279.04 404.212 279.04C403.641 279.04 403.198 278.963 402.884 278.808C402.569 278.653 402.348 278.424 402.22 278.12C402.097 277.816 402.036 277.443 402.036 277V271.808H400.692V270.728H402.076L402.436 268.32H403.524V270.72H405.388V271.808ZM409.113 270.728V279H407.681V270.728H409.113ZM409.145 267.44V268.976H407.633V267.44H409.145ZM415.004 279.16C414.242 279.16 413.575 278.997 413.004 278.672C412.434 278.341 411.991 277.859 411.676 277.224C411.362 276.589 411.204 275.813 411.204 274.896C411.204 274.032 411.351 273.275 411.644 272.624C411.938 271.973 412.367 271.469 412.932 271.112C413.503 270.749 414.194 270.568 415.004 270.568C415.767 270.568 416.428 270.736 416.988 271.072C417.554 271.403 417.991 271.891 418.3 272.536C418.61 273.181 418.764 273.968 418.764 274.896C418.764 275.739 418.62 276.48 418.332 277.12C418.05 277.76 417.628 278.261 417.068 278.624C416.514 278.981 415.826 279.16 415.004 279.16ZM415.004 277.992C415.5 277.992 415.919 277.867 416.26 277.616C416.602 277.365 416.86 277.005 417.036 276.536C417.212 276.067 417.3 275.509 417.3 274.864C417.3 274.272 417.223 273.741 417.068 273.272C416.914 272.797 416.666 272.421 416.324 272.144C415.988 271.867 415.548 271.728 415.004 271.728C414.503 271.728 414.079 271.853 413.732 272.104C413.386 272.349 413.122 272.707 412.94 273.176C412.764 273.645 412.676 274.208 412.676 274.864C412.676 275.445 412.756 275.973 412.916 276.448C413.076 276.923 413.327 277.299 413.668 277.576C414.01 277.853 414.455 277.992 415.004 277.992ZM420.701 279V270.728H422.133V271.928C422.266 271.699 422.45 271.483 422.685 271.28C422.925 271.077 423.213 270.915 423.549 270.792C423.89 270.669 424.282 270.608 424.725 270.608C425.247 270.608 425.727 270.712 426.165 270.92C426.607 271.128 426.959 271.453 427.221 271.896C427.487 272.333 427.621 272.899 427.621 273.592V279H426.141V273.736C426.141 273.091 425.97 272.613 425.629 272.304C425.293 271.989 424.855 271.832 424.317 271.832C423.943 271.832 423.594 271.893 423.269 272.016C422.943 272.133 422.679 272.315 422.477 272.56C422.274 272.8 422.173 273.104 422.173 273.472V279H420.701ZM432.746 279.16C432.17 279.16 431.634 279.072 431.138 278.896C430.647 278.715 430.239 278.435 429.914 278.056C429.589 277.672 429.383 277.184 429.298 276.592H430.642C430.717 276.917 430.85 277.189 431.042 277.408C431.239 277.621 431.485 277.784 431.778 277.896C432.071 278.003 432.391 278.056 432.738 278.056C433.293 278.056 433.741 277.952 434.082 277.744C434.423 277.536 434.594 277.216 434.594 276.784C434.594 276.48 434.503 276.237 434.322 276.056C434.146 275.869 433.871 275.733 433.498 275.648L431.786 275.224C431.119 275.064 430.586 274.813 430.186 274.472C429.786 274.131 429.586 273.653 429.586 273.04C429.581 272.555 429.695 272.128 429.93 271.76C430.165 271.392 430.517 271.101 430.986 270.888C431.455 270.675 432.039 270.568 432.738 270.568C433.634 270.568 434.357 270.771 434.906 271.176C435.461 271.576 435.749 272.165 435.77 272.944H434.466C434.413 272.549 434.234 272.237 433.93 272.008C433.631 271.773 433.229 271.656 432.722 271.656C432.194 271.656 431.765 271.763 431.434 271.976C431.103 272.184 430.938 272.509 430.938 272.952C430.938 273.245 431.055 273.477 431.29 273.648C431.525 273.813 431.871 273.952 432.33 274.064L433.986 274.48C434.37 274.581 434.685 274.715 434.93 274.88C435.181 275.045 435.378 275.229 435.522 275.432C435.671 275.635 435.775 275.848 435.834 276.072C435.898 276.291 435.93 276.501 435.93 276.704C435.93 277.211 435.802 277.648 435.546 278.016C435.295 278.379 434.933 278.661 434.458 278.864C433.989 279.061 433.418 279.16 432.746 279.16Z" fill="#DCDCDC"/>
<circle cx="275" cy="172" r="27" fill="white" fill-opacity="0.33"/>
<circle cx="275" cy="172" r="14" fill="white"/>
<path d="M385.646 238.354C385.842 238.549 386.158 238.549 386.354 238.354L389.536 235.172C389.731 234.976 389.731 234.66 389.536 234.464C389.34 234.269 389.024 234.269 388.828 234.464L386 237.293L383.172 234.464C382.976 234.269 382.66 234.269 382.464 234.464C382.269 234.66 382.269 234.976 382.464 235.172L385.646 238.354ZM386 172H386.5V171.5H386V172ZM386.5 238V237.029H385.5V238H386.5ZM386.5 235.088V233.147H385.5V235.088H386.5ZM386.5 231.206V229.265H385.5V231.206H386.5ZM386.5 227.324V225.382H385.5V227.324H386.5ZM386.5 223.441V221.5H385.5V223.441H386.5ZM386.5 219.559V217.618H385.5V219.559H386.5ZM386.5 215.676V213.735H385.5V215.676H386.5ZM386.5 211.794V209.853H385.5V211.794H386.5ZM386.5 207.912V205.971H385.5V207.912H386.5ZM386.5 204.029V202.088H385.5V204.029H386.5ZM386.5 200.147V198.206H385.5V200.147H386.5ZM386.5 196.265V194.324H385.5V196.265H386.5ZM386.5 192.382V190.441H385.5V192.382H386.5ZM386.5 188.5V186.559H385.5V188.5H386.5ZM386.5 184.618V182.676H385.5V184.618H386.5ZM386.5 180.735V178.794H385.5V180.735H386.5ZM386.5 176.853V174.912H385.5V176.853H386.5ZM386.5 172.971V172H385.5V172.971H386.5ZM386 171.5H385.009V172.5H386V171.5ZM383.027 171.5H381.045V172.5H383.027V171.5ZM379.062 171.5H377.08V172.5H379.062V171.5ZM375.098 171.5H373.116V172.5H375.098V171.5ZM371.134 171.5H369.152V172.5H371.134V171.5ZM367.17 171.5H365.188V172.5H367.17V171.5ZM363.205 171.5H361.223V172.5H363.205V171.5ZM359.241 171.5H357.259V172.5H359.241V171.5ZM355.277 171.5H353.295V172.5H355.277V171.5ZM351.312 171.5H349.33V172.5H351.312V171.5ZM347.348 171.5H345.366V172.5H347.348V171.5ZM343.384 171.5H341.402V172.5H343.384V171.5ZM339.42 171.5H337.437V172.5H339.42V171.5ZM335.455 171.5H333.473V172.5H335.455V171.5ZM331.491 171.5H329.509V172.5H331.491V171.5ZM327.527 171.5H325.545V172.5H327.527V171.5ZM323.562 171.5H321.58V172.5H323.562V171.5ZM319.598 171.5H317.616V172.5H319.598V171.5ZM315.634 171.5H313.652V172.5H315.634V171.5ZM311.67 171.5H309.688V172.5H311.67V171.5ZM307.705 171.5H305.723V172.5H307.705V171.5ZM303.741 171.5H301.759V172.5H303.741V171.5ZM299.777 171.5H297.795V172.5H299.777V171.5ZM295.813 171.5H293.83V172.5H295.813V171.5ZM291.848 171.5H289.866V172.5H291.848V171.5ZM287.884 171.5H285.902V172.5H287.884V171.5ZM283.92 171.5H281.938V172.5H283.92V171.5ZM279.955 171.5H277.973V172.5H279.955V171.5ZM275.991 171.5H275V172.5H275.991V171.5Z" fill="white"/>
</svg>
