<svg width="70" height="70" viewBox="0 0 70 72" fill="none" xmlns="http://www.w3.org/2000/svg">
<path d="M0 18C0 8.05888 8.05888 0 18 0C27.9411 0 36 8.05888 36 18C36 27.9411 27.9411 36 18 36C8.05888 36 0 27.9411 0 18Z" fill="#C4C4C4"/>
<path d="M36 17.5C36 7.83502 43.835 0 53.5 0C63.165 0 71 7.83502 71 17.5V18.5C71 28.165 63.165 36 53.5 36C43.835 36 36 28.165 36 18.5V17.5Z" fill="#C4C4C4"/>
<path d="M0 53.5C0 43.835 7.83502 36 17.5 36H18.5C28.165 36 36 43.835 36 53.5C36 63.165 28.165 71 18.5 71H17.5C7.83502 71 0 63.165 0 53.5Z" fill="#C4C4C4"/>
<path d="M36 53.75C36 43.9469 43.9469 36 53.75 36C63.5531 36 71.5 43.9469 71.5 53.75C71.5 63.5531 63.5531 71.5 53.75 71.5C43.9469 71.5 36 63.5531 36 53.75Z" fill="#EDEDED"/>
<path d="M57.3 53.5757V54.6346L50.91 54.6494V53.5831L57.3 53.5757ZM54.6493 57.3002H53.5904L53.5756 50.9102H54.6419L54.6493 57.3002Z" fill="#00091A"/>
</svg>
