<svg width="92" height="65" viewBox="0 0 92 65" fill="none" xmlns="http://www.w3.org/2000/svg">
<mask id="mask0_5_123" style="mask-type:luminance" maskUnits="userSpaceOnUse" x="0" y="0" width="92" height="65">
<path d="M0 0H92V64.2647H0V0Z" fill="white"/>
</mask>
<g mask="url(#mask0_5_123)">
<path fill-rule="evenodd" clip-rule="evenodd" d="M38.2003 7.03528C41.17 3.94381 45.3033 2.0294 49.8694 2.0294C55.9577 2.0294 61.2341 5.41175 64.0753 10.4515C66.5973 9.32404 69.329 8.74197 72.0915 8.74337C83.0503 8.74337 91.9459 17.7066 91.9459 28.7669C91.9459 39.8272 83.0503 48.7904 72.0915 48.7904C70.7521 48.7904 69.4465 48.6558 68.168 48.4015C65.6819 52.8323 60.9297 55.8426 55.518 55.8426C53.3147 55.847 51.1395 55.3472 49.1591 54.3815C46.6393 60.3006 40.7709 64.4609 33.9386 64.4609C26.8018 64.4609 20.7474 59.9623 18.4136 53.6373C17.3748 53.8566 16.3161 53.9667 15.2544 53.9661C6.76474 53.9661 -0.10144 46.9985 -0.10144 38.4411C-0.10144 32.6911 2.99003 27.6852 7.5765 24.9793C6.60348 22.7379 6.10263 20.32 6.10518 17.8764C6.10518 7.99993 14.1214 0.0175781 23.9978 0.0175781C29.7816 0.0175781 34.9566 2.7742 38.2037 7.05287" fill="#00A1E0"/>
</g>
<path fill-rule="evenodd" clip-rule="evenodd" d="M13.3062 33.4177C13.2484 33.5685 13.3268 33.6 13.3454 33.6267C13.5183 33.7518 13.6938 33.8425 13.8697 33.9443C14.81 34.4415 15.6962 34.5869 16.6229 34.5869C18.5103 34.5869 19.684 33.5824 19.684 31.9656V31.9338C19.684 30.4388 18.3581 29.8943 17.1201 29.5053L16.9581 29.4529C16.0212 29.1491 15.2128 28.8846 15.2128 28.269V28.2376C15.2128 27.7099 15.6864 27.321 16.4169 27.321C17.2287 27.321 18.1961 27.5912 18.815 27.9332C18.815 27.9332 18.9984 28.0516 19.065 27.8747C19.1012 27.7789 19.4168 26.9344 19.4506 26.8397C19.4864 26.7406 19.4235 26.6658 19.3589 26.6272C18.6486 26.1943 17.6677 25.9 16.653 25.9L16.4646 25.9007C14.7363 25.9007 13.5288 26.9459 13.5288 28.4409V28.473C13.5288 30.0492 14.8614 30.5633 16.1061 30.9184L16.3063 30.9807C17.2128 31.2594 17.9975 31.5016 17.9975 32.1374V32.1692C17.9975 32.7544 17.4868 33.1907 16.6683 33.1907C16.35 33.1907 15.3356 33.1853 14.2363 32.4906C14.1034 32.4131 14.0277 32.3573 13.9252 32.2947C13.871 32.2619 13.7358 32.2027 13.6769 32.38L13.3048 33.415M40.9387 33.415C40.8808 33.5658 40.9593 33.5973 40.9786 33.624C41.1507 33.7491 41.327 33.8398 41.5028 33.9416C42.4431 34.4388 43.3293 34.5842 44.2561 34.5842C46.1434 34.5842 47.3171 33.5797 47.3171 31.9629V31.9311C47.3171 30.4361 45.9946 29.8916 44.7533 29.5026L44.5913 29.4502C43.6544 29.1464 42.846 28.8819 42.846 28.2663V28.2349C42.846 27.7072 43.3195 27.3183 44.0501 27.3183C44.8619 27.3183 45.8258 27.5885 46.4482 27.9305C46.4482 27.9305 46.6315 28.0489 46.6985 27.872C46.7343 27.7762 47.0502 26.9317 47.0807 26.837C47.1169 26.7379 47.0536 26.6631 46.9894 26.6245C46.2791 26.1916 45.2982 25.8973 44.2835 25.8973L44.0947 25.898C42.3664 25.898 41.1589 26.9432 41.1589 28.4382V28.4703C41.1589 30.0465 42.4915 30.5606 43.7362 30.9157L43.9361 30.978C44.846 31.2567 45.6273 31.4989 45.6273 32.1347V32.1665C45.6273 32.7517 45.1165 33.188 44.298 33.188C43.9791 33.188 42.962 33.1826 41.8661 32.4879C41.7332 32.4104 41.6554 32.357 41.5546 32.292C41.5204 32.2704 41.3611 32.2081 41.3067 32.3772L40.9346 33.4122M59.8081 30.2464C59.8081 31.1596 59.6377 31.88 59.3042 32.3908C58.9713 32.8947 58.4687 33.1417 57.7686 33.1417C57.0684 33.1417 56.5678 32.8968 56.2398 32.3942C55.9093 31.8868 55.7425 31.163 55.7425 30.2497C55.7425 29.3365 55.9103 28.6195 56.2398 28.1155C56.5672 27.6149 57.0651 27.3747 57.7686 27.3747C58.4721 27.3747 58.9727 27.6173 59.3042 28.1155C59.6397 28.6195 59.8081 29.3365 59.8081 30.2497M61.3843 28.5552C61.2291 28.0309 60.9886 27.5709 60.6673 27.1853C60.3456 26.7998 59.94 26.4886 59.4564 26.2653C58.9761 26.0404 58.4078 25.9271 57.7652 25.9271C57.1225 25.9271 56.5577 26.0411 56.074 26.2653C55.5937 26.4899 55.1845 26.7998 54.8631 27.1853C54.5425 27.5709 54.3017 28.0309 54.1461 28.5552C53.9922 29.0761 53.914 29.6443 53.914 30.2497C53.914 30.8552 53.9922 31.4234 54.1461 31.9443C54.3007 32.4686 54.5418 32.9286 54.8631 33.3142C55.1848 33.6998 55.5937 34.0075 56.074 34.2274C56.5577 34.4466 57.1259 34.5582 57.7652 34.5582C58.4045 34.5582 58.9727 34.4466 59.453 34.2274C59.9333 34.0082 60.3426 33.6998 60.6639 33.3142C60.9849 32.9286 61.2253 32.4686 61.3809 31.9443C61.5345 31.4234 61.6126 30.8552 61.6126 30.2497C61.6126 29.6477 61.5345 29.0761 61.3809 28.5552M74.3353 32.8846C74.2836 32.7314 74.1341 32.7892 74.1341 32.7892C73.9051 32.8768 73.6606 32.958 73.4001 32.9986C73.1377 33.0399 72.8454 33.0605 72.5376 33.0605C71.7766 33.0605 71.1678 32.8335 70.7348 32.384C70.2985 31.9342 70.055 31.2103 70.0584 30.2295C70.0607 29.3365 70.2765 28.6668 70.6638 28.1527C71.046 27.6453 71.6345 27.3815 72.4125 27.3815C73.0619 27.3815 73.5591 27.4569 74.08 27.62C74.08 27.62 74.2034 27.6737 74.2626 27.5111C74.401 27.1289 74.5031 26.8549 74.6516 26.4355C74.6935 26.3154 74.5907 26.2647 74.5532 26.2501C74.3489 26.1703 73.8666 26.0394 73.5013 25.9843C73.1596 25.9322 72.7639 25.9051 72.3174 25.9051C71.6545 25.9051 71.066 26.0184 70.562 26.243C70.058 26.4673 69.6318 26.7774 69.2936 27.163C68.9554 27.5486 68.6983 28.0086 68.5258 28.5329C68.355 29.0538 68.2688 29.6254 68.2688 30.2308C68.2688 31.5364 68.6205 32.5951 69.3173 33.3696C70.014 34.1476 71.0626 34.5399 72.4291 34.5399C73.2374 34.5399 74.0661 34.3766 74.6614 34.1408C74.6614 34.1408 74.7751 34.086 74.7257 33.9534L74.3367 32.8846M77.0933 29.367C77.1687 28.8596 77.3078 28.4368 77.5263 28.1087C77.8533 27.6081 78.3515 27.3342 79.0517 27.3342C79.7518 27.3342 80.2152 27.6095 80.5467 28.1087C80.7665 28.4385 80.8626 28.8765 80.8985 29.367L77.0764 29.3663L77.0933 29.367ZM82.4036 28.2508C82.2693 27.7468 81.9368 27.2361 81.7204 27.0027C81.3754 26.634 81.0405 26.3736 80.7057 26.2315C80.2222 26.026 79.7022 25.9204 79.1768 25.9214C78.5105 25.9214 77.9051 26.034 77.4146 26.263C76.9242 26.4936 76.5116 26.8075 76.1868 27.1999C75.8625 27.5922 75.6186 28.0556 75.463 28.5866C75.3074 29.1109 75.229 29.6859 75.229 30.288C75.229 30.9036 75.3105 31.4752 75.4708 31.9927C75.6328 32.5136 75.8936 32.9702 76.2454 33.349C76.5971 33.7312 77.047 34.0289 77.5882 34.2386C78.1259 34.4466 78.7787 34.5545 79.5262 34.5521C81.0686 34.547 81.8804 34.2037 82.2118 34.0177C82.271 33.9845 82.3268 33.9274 82.2572 33.7627L81.9088 32.7852C81.8553 32.6394 81.7079 32.6921 81.7079 32.6921C81.3257 32.8349 80.7845 33.0913 79.5161 33.0879C78.6874 33.0865 78.0752 32.842 77.6896 32.4588C77.2973 32.0664 77.1011 31.4948 77.0707 30.683L82.4148 30.6871C82.4148 30.6871 82.5555 30.6857 82.57 30.5484C82.5758 30.4916 82.753 29.4525 82.4107 28.2518L82.4036 28.2508ZM34.3742 29.367C34.4496 28.8596 34.589 28.4368 34.8071 28.1087C35.1346 27.6081 35.6324 27.3342 36.3326 27.3342C37.0327 27.3342 37.4961 27.6095 37.8276 28.1087C38.0471 28.4385 38.1432 28.8765 38.1793 29.367L34.3573 29.3663L34.3742 29.367ZM39.6845 28.2508C39.5505 27.7468 39.2177 27.2361 39.0013 27.0027C38.6563 26.634 38.3214 26.3736 37.9865 26.2315C37.5031 26.026 36.983 25.9204 36.4577 25.9214C35.7914 25.9214 35.186 26.034 34.6955 26.263C34.2051 26.4936 33.7924 26.8075 33.4677 27.1999C33.144 27.5922 32.8995 28.0556 32.7439 28.5866C32.5887 29.1109 32.5105 29.6859 32.5105 30.288C32.5105 30.9036 32.5914 31.4752 32.7527 31.9927C32.9144 32.5136 33.1755 32.9702 33.5239 33.349C33.8756 33.7312 34.3255 34.0289 34.8667 34.2386C35.4045 34.4466 36.0539 34.5545 36.8048 34.5521C38.3471 34.547 39.1589 34.2037 39.4903 34.0177C39.5492 33.9845 39.6053 33.9274 39.5353 33.7627L39.1869 32.7852C39.1332 32.6394 38.9857 32.6921 38.9857 32.6921C38.6035 32.8349 38.0623 33.0913 36.7939 33.0879C35.9686 33.0865 35.353 32.842 34.9675 32.4588C34.5751 32.0664 34.3789 31.4948 34.3485 30.683L39.6926 30.6871C39.6926 30.6871 39.8333 30.6857 39.8479 30.5484C39.8536 30.4916 40.0308 29.4525 39.6882 28.2518L39.6845 28.2508ZM22.8404 32.8508C22.631 32.6837 22.6019 32.6428 22.5326 32.5342C22.4267 32.3708 22.3726 32.1385 22.3726 31.8408C22.3726 31.374 22.5282 31.0358 22.8495 30.8092C22.8461 30.8099 23.3095 30.4101 24.3986 30.4236C24.8834 30.4323 25.367 30.4735 25.8463 30.5471V32.9722H25.8469C25.8469 32.9722 25.1705 33.118 24.4061 33.164C23.3203 33.2293 22.84 32.8515 22.8434 32.8525L22.8404 32.8508ZM24.9645 29.0964C24.748 29.0805 24.4673 29.0727 24.1324 29.0727C23.6758 29.0727 23.2327 29.1295 22.8201 29.2411C22.404 29.3534 22.0286 29.5273 21.7073 29.7586C21.3851 29.9885 21.1201 30.2894 20.9327 30.638C20.7437 30.9898 20.6473 31.4025 20.6473 31.8692C20.6473 32.3428 20.7294 32.752 20.8918 33.0869C21.0509 33.419 21.2904 33.7062 21.5886 33.9223C21.8852 34.1381 22.2515 34.2977 22.6743 34.3925C23.0937 34.4882 23.5672 34.5365 24.0881 34.5365C24.6361 34.5365 25.1806 34.4905 25.7083 34.4016C26.1577 34.3241 26.6054 34.237 27.0511 34.1405C27.229 34.0995 27.4265 34.0458 27.4265 34.0458C27.5584 34.0123 27.5483 33.8712 27.5483 33.8712L27.5452 29.0006C27.5452 27.9318 27.2598 27.137 26.6963 26.6465C26.1348 26.1561 25.3129 25.9092 24.2474 25.9092C23.8483 25.9092 23.2023 25.9633 22.8167 26.0407C22.8167 26.0407 21.6532 26.2667 21.1729 26.6428C21.1729 26.6428 21.0673 26.7078 21.1248 26.8549L21.5037 27.8696C21.5507 28.0012 21.6789 27.9562 21.6789 27.9562C21.6789 27.9562 21.7191 27.9403 21.7665 27.9122C22.7913 27.3541 24.0902 27.371 24.0902 27.371C24.6652 27.371 25.1116 27.4877 25.4093 27.716C25.7005 27.9396 25.849 28.2775 25.849 28.9878V29.2134C25.3924 29.1471 24.9696 29.1089 24.9696 29.1089L24.9645 29.0964ZM67.9204 26.3465C67.9281 26.3287 67.9321 26.3095 67.9322 26.2901C67.9323 26.2706 67.9285 26.2514 67.921 26.2335C67.9136 26.2155 67.9025 26.1993 67.8887 26.1857C67.8748 26.1721 67.8583 26.1615 67.8402 26.1544C67.7492 26.1199 67.2957 26.0242 66.9473 26.0025C66.2776 25.9606 65.9055 26.0736 65.5707 26.2237C65.2399 26.3729 64.8739 26.6127 64.6709 26.8901L64.6703 26.2406C64.6703 26.1514 64.607 26.0793 64.5171 26.0793H63.1506C63.062 26.0793 62.9977 26.1514 62.9977 26.2406V34.1892C62.9978 34.2321 63.0149 34.2733 63.0452 34.3036C63.0756 34.334 63.1168 34.3511 63.1597 34.3512H64.56C64.6029 34.3511 64.644 34.334 64.6744 34.3036C64.7047 34.2732 64.7217 34.2321 64.7217 34.1892V30.198C64.7217 29.6636 64.7805 29.1326 64.8979 28.7977C65.0136 28.4666 65.1709 28.2024 65.3647 28.013C65.5496 27.8301 65.7758 27.6943 66.0242 27.6173C66.2574 27.5504 66.4987 27.5164 66.7413 27.5165C67.0203 27.5165 67.3264 27.5882 67.3264 27.5882C67.4293 27.5997 67.4864 27.5368 67.5213 27.4441C67.6129 27.2002 67.873 26.47 67.9238 26.3245" fill="#FFFFFE"/>
<path fill-rule="evenodd" clip-rule="evenodd" d="M54.8418 22.678C54.6687 22.6257 54.4926 22.5839 54.3145 22.5529C54.0749 22.5129 53.8322 22.4941 53.5893 22.4967C52.6243 22.4967 51.8636 22.7693 51.3296 23.3078C50.7992 23.8422 50.4383 24.6563 50.2574 25.7275L50.1921 26.0891H48.9809C48.9809 26.0891 48.833 26.083 48.8019 26.2444L48.603 27.3538C48.5892 27.46 48.6348 27.5263 48.7769 27.5256H49.956L48.7596 34.2034C48.666 34.7412 48.5587 35.1836 48.44 35.5188C48.323 35.8496 48.2087 36.0975 48.068 36.2774C47.9316 36.4516 47.8024 36.5798 47.5795 36.6546C47.3955 36.7165 47.1838 36.7449 46.9518 36.7449C46.8226 36.7449 46.6507 36.7232 46.5239 36.6979C46.3971 36.6728 46.3311 36.6444 46.2361 36.6045C46.2361 36.6045 46.0977 36.5517 46.0433 36.6904C45.999 36.8037 45.6847 37.6679 45.6475 37.7748C45.6097 37.8803 45.6628 37.9635 45.7297 37.9875C45.8867 38.0437 46.0034 38.0795 46.2171 38.1299C46.5141 38.2 46.7644 38.2044 46.9988 38.2044C47.4899 38.2044 47.9374 38.1354 48.3084 38.0014C48.6819 37.8665 49.0069 37.6314 49.2944 37.3131C49.6052 36.9698 49.8007 36.6102 49.9878 36.1198C50.1728 35.6338 50.3304 35.0304 50.4566 34.3272L51.6587 27.5256H53.4161C53.4161 27.5256 53.5643 27.531 53.5951 27.3703L53.7939 26.2609C53.8078 26.1547 53.7625 26.0884 53.6197 26.0891H51.914C51.9225 26.0505 51.9999 25.4505 52.1958 24.8857C52.2793 24.6445 52.4366 24.45 52.5699 24.3164C52.6943 24.1892 52.8476 24.0938 53.0167 24.0384C53.2021 23.9811 53.3953 23.9532 53.5893 23.9558C53.75 23.9558 53.9076 23.9751 54.0277 24.0002C54.1931 24.0353 54.2573 24.0539 54.3006 24.0668C54.4745 24.1199 54.4978 24.0685 54.532 23.9843L54.9399 22.864C54.9818 22.7436 54.8797 22.6929 54.8418 22.678ZM31.005 34.2176C31.005 34.3069 30.9414 34.3796 30.8521 34.3796H29.4373C29.3476 34.3796 29.2841 34.3069 29.2841 34.2176V22.8299C29.2841 22.7409 29.3476 22.6689 29.4373 22.6689H30.8521C30.9414 22.6689 31.005 22.7409 31.005 22.8299V34.2176Z" fill="#FFFFFE"/>
</svg>
