<svg width="134" height="40" viewBox="0 0 134 40" fill="none" xmlns="http://www.w3.org/2000/svg">
<path d="M130.36 19.3798L117.847 13.2883V9.65917L134 17.7606V21.0715L117.847 29.1003V25.5493L130.36 19.3798ZM100.226 29.6587H94.8608V0.0111712H100.226V17.4088H100.796L107.943 9.13992L111.979 10.8708L105.112 18.2184L113.224 28.3187L108.266 30.0551L100.226 18.9108V29.6587ZM85.8382 29.6475V18.1012C85.8512 17.3169 85.8027 16.5328 85.693 15.7562C85.6116 15.2466 85.4415 14.7553 85.1905 14.3045C84.5596 13.1767 83.4708 12.6072 81.8963 12.6072C80.997 12.58 80.1072 12.7981 79.3224 13.2381C78.6001 13.6577 78.0383 14.306 77.7256 15.0806C77.5298 15.5502 77.3983 16.0442 77.3348 16.549C77.2678 17.2748 77.2287 18.0118 77.2398 18.7544V29.6419H71.8743V9.46375H77.2398L77.251 12.1717C78.2839 11.055 79.3336 10.2287 80.4112 9.73175C81.4832 9.23483 82.745 8.98358 84.1688 8.98358C85.7656 8.98358 87.1112 9.30742 88.1943 9.97184C88.8693 10.3734 89.4536 10.9108 89.9101 11.5499C90.3667 12.189 90.6855 12.916 90.8464 13.6848C91.0423 14.5042 91.1435 15.3435 91.1479 16.1861C91.1591 16.7444 91.1703 17.4144 91.1703 18.1849V29.6475H85.8382ZM62.8628 29.6587L62.8516 26.9508C61.9754 27.9685 60.9023 28.7985 59.697 29.3907C58.5122 29.9121 57.2281 30.1693 55.9338 30.1444C54.3426 30.1444 53.0082 29.8262 51.9138 29.1953C50.8192 28.5623 49.9799 27.567 49.5409 26.3813C49.4043 26.0833 49.3031 25.7704 49.2394 25.4488C49.1586 25.082 49.0971 24.7111 49.0552 24.3378C48.993 23.8601 48.9613 23.379 48.9603 22.8973C48.9434 22.2367 48.9341 21.5759 48.9323 20.9152V9.43584H54.27V20.9933C54.2533 21.7806 54.3035 22.5678 54.4152 23.3383C54.4989 23.852 54.6664 24.3433 54.9177 24.79C55.5486 25.929 56.6373 26.4985 58.2118 26.4985C60.2218 26.4985 61.5953 25.661 62.3435 23.9916C62.5389 23.5338 62.6785 23.0536 62.7567 22.5567C62.8516 21.8085 62.8907 21.0548 62.8795 20.3066V9.41909H68.2116V29.6531L62.8628 29.6587ZM40.1107 0H45.4428V29.6475H40.1107V0ZM32.1544 19.3183C32.1544 17.1073 31.7078 15.3653 30.8144 14.0868C30.419 13.4785 29.874 12.982 29.2318 12.6448C28.5895 12.3075 27.8714 12.1407 27.1462 12.1605C26.3805 12.1427 25.623 12.3212 24.9457 12.6789C24.2684 13.0366 23.694 13.5616 23.2769 14.204C22.3222 15.5719 21.8476 17.4088 21.8643 19.7315C21.8643 21.9928 22.3333 23.7683 23.2602 25.0748C23.6851 25.6981 24.2617 26.2031 24.9357 26.542C25.6097 26.881 26.3589 27.0428 27.1127 27.0122C27.9807 27.0427 28.8334 26.7769 29.5303 26.2584C30.1819 25.7499 30.7105 25.101 31.0768 24.3601C31.4733 23.5784 31.7524 22.7297 31.8976 21.8588C32.0651 21.0157 32.1377 20.1838 32.1544 19.3183ZM37.7936 19.1173C37.8103 20.6025 37.5703 22.0877 37.0733 23.5058C36.6155 24.79 35.9343 25.9681 35.041 27.001C33.3102 29.0166 30.7753 30.1668 28.1177 30.1444C27.5315 30.1474 26.9464 30.095 26.3701 29.9881C25.8351 29.8787 25.3182 29.6945 24.8347 29.4409C24.319 29.1672 23.8373 28.8336 23.3997 28.4471C22.8678 27.9882 22.373 27.4879 21.9202 26.9508V39.7533H16.7332V9.46375H21.9258L21.9481 12.4173C22.8917 11.2337 23.919 10.3627 25.0189 9.80434C26.1188 9.246 27.3974 8.96684 28.8603 8.98358C30.0767 8.96144 31.2835 9.20299 32.3976 9.69165C33.5118 10.1803 34.5069 10.9045 35.3146 11.8143C36.1409 12.7412 36.7607 13.8299 37.1571 15.0024C37.6038 16.3201 37.8215 17.7103 37.7936 19.1173ZM14.2933 24.0865C14.3055 24.9412 14.1101 25.7862 13.7238 26.5488C13.3494 27.3004 12.8114 27.9585 12.1493 28.475C11.4235 29.0333 10.6139 29.4409 9.7485 29.7033C8.76133 30.008 7.73309 30.1587 6.7 30.15C5.49289 30.1644 4.29154 29.9814 3.14342 29.6084C2.00397 29.1909 0.941725 28.5871 0 27.8218L1.742 25.0022C2.5795 25.7057 3.32767 26.2138 4.00325 26.5376C4.64533 26.8558 5.34325 27.0233 6.05792 27.0233C6.81035 27.0596 7.55036 26.8215 8.1405 26.3533C8.40026 26.1339 8.60591 25.8576 8.74148 25.5458C8.87705 25.234 8.93888 24.8951 8.92217 24.5555C8.92547 23.9013 8.68685 23.2689 8.25217 22.78C7.93645 22.4248 7.58676 22.1013 7.20808 21.8141C6.64394 21.3704 6.0706 20.9385 5.48842 20.5188C4.95543 20.1415 4.43228 19.7505 3.9195 19.3463C3.41617 18.9533 2.94562 18.5201 2.5125 18.0509C2.09816 17.5957 1.75891 17.0774 1.5075 16.5155C1.24066 15.9051 1.10923 15.2441 1.12225 14.5781C1.11331 13.786 1.29322 13.0032 1.64708 12.2945C1.98806 11.6132 2.47401 11.0148 3.07083 10.5413C3.72204 10.0348 4.45985 9.65074 5.24833 9.40792C6.14167 9.12875 7.07408 8.99475 8.0065 9.00592C9.03383 9.00592 10.0612 9.15108 11.0494 9.43025C12.0209 9.70942 12.9366 10.117 13.7741 10.653L12.1996 13.1878C11.2125 12.4694 10.0257 12.0771 8.80492 12.0656C8.15608 12.0417 7.51894 12.2429 7.0015 12.6351C6.77965 12.797 6.59995 13.0098 6.47752 13.2556C6.35509 13.5014 6.29353 13.7731 6.298 14.0477C6.298 14.5948 6.52692 15.1253 6.92892 15.4993C7.34208 15.9348 8.06233 16.5378 9.0785 17.3139C10.1114 18.0733 10.9545 18.7265 11.6301 19.296C12.2107 19.7706 12.7579 20.3122 13.2269 20.8928C13.5898 21.3395 13.869 21.8588 14.0365 22.4171C14.2264 22.9524 14.3136 23.5188 14.2933 24.0865Z" fill="white"/>
</svg>
