<svg width="24" height="24" viewBox="0 0 24 24" fill="none" xmlns="http://www.w3.org/2000/svg">
<path d="M6.92308 13.6923L10.3923 16.4677C10.4855 16.5444 10.5946 16.5994 10.7117 16.6287C10.8288 16.658 10.9509 16.6608 11.0692 16.6369C11.1887 16.6145 11.3019 16.5666 11.4012 16.4966C11.5005 16.4265 11.5835 16.3358 11.6446 16.2308L17.0769 6.92308M6.07692 1H17.9231C20.727 1 23 3.27302 23 6.07692V17.9231C23 20.727 20.727 23 17.9231 23H6.07692C3.27302 23 1 20.727 1 17.9231V6.07692C1 3.27302 3.27302 1 6.07692 1Z" stroke="#323232" stroke-width="2" stroke-linecap="round" stroke-linejoin="round"/>
</svg>
